<svg width="116" height="116" viewBox="0 0 116 116" fill="none" xmlns="http://www.w3.org/2000/svg">
<circle cx="58" cy="58" r="58" fill="#467FF7"/>
<path d="M52.8343 63.1663L67.6273 48.3733M82.7562 39.3497L70.2709 79.9314C69.1506 83.5701 68.592 85.3895 67.6243 85.9908C67.2122 86.2483 66.7446 86.4037 66.2604 86.444C65.7762 86.4844 65.2893 86.4085 64.8403 86.2228C63.7902 85.7863 62.9354 84.086 61.2321 80.6793L53.3258 64.8605C53.1641 64.494 52.9668 64.1444 52.7366 63.8165C52.5778 63.6096 52.3931 63.424 52.1871 63.264C51.8691 63.0431 51.5307 62.853 51.1767 62.6962L35.3244 54.7655C31.9207 53.0621 30.2173 52.2104 29.7808 51.1603C29.5946 50.7109 29.5185 50.2235 29.5589 49.7387C29.5992 49.2539 29.7549 48.7857 30.0128 48.3733C30.6142 47.4086 32.4335 46.847 36.0723 45.7266L76.657 33.2414C79.5173 32.3592 80.946 31.9196 81.9136 32.2767C82.3293 32.4294 82.7068 32.6706 83.0199 32.9837C83.333 33.2969 83.5743 33.6743 83.7269 34.09C84.081 35.0546 83.6414 36.4833 82.7623 39.3405L82.7562 39.3497Z" stroke="white" stroke-width="6.10526" stroke-linecap="round" stroke-linejoin="round"/>
</svg>
