<svg width="116" height="116" viewBox="0 0 116 116" fill="none" xmlns="http://www.w3.org/2000/svg">
<circle cx="58" cy="58" r="58" fill="#467FF7"/>
<path d="M35.8613 44.7075L34.8509 55.8313C34.6983 57.4797 34.625 58.3069 34.7593 59.0976C34.8826 59.8015 35.1285 60.4782 35.4858 61.0971C35.8857 61.7931 36.4779 62.3853 37.6563 63.5636L53.4567 79.364C55.8591 81.7664 57.0588 82.9661 58.4508 83.4179C59.6779 83.8178 60.9997 83.8178 62.2269 83.4179C63.6189 82.9661 64.8308 81.7573 67.2485 79.3396L79.3369 67.2512C81.7546 64.8335 82.9604 63.6246 83.4152 62.2326C83.8126 61.0062 83.8115 59.6854 83.4122 58.4596C82.9604 57.0645 81.7546 55.8557 79.3369 53.438L63.5762 37.6773C62.3856 36.4867 61.7934 35.8945 61.0944 35.4916C60.4746 35.1339 59.7968 34.888 59.0918 34.7651C58.2982 34.6277 57.4587 34.704 55.7828 34.8566L44.7017 35.864C41.82 36.1265 40.3762 36.2578 39.2467 36.8866C38.2532 37.4396 37.4338 38.2589 36.8809 39.2524C36.2551 40.3758 36.1238 41.8105 35.8644 44.6647L35.8613 44.7075Z" stroke="white" stroke-width="6.10526" stroke-linecap="round" stroke-linejoin="round"/>
<path d="M51.0172 51.0201C51.3006 50.7364 51.5254 50.3998 51.6787 50.0293C51.832 49.6588 51.9108 49.2617 51.9107 48.8608C51.9106 48.4598 51.8314 48.0628 51.6779 47.6924C51.5243 47.322 51.2993 46.9855 51.0157 46.7021C50.732 46.4187 50.3954 46.1939 50.0249 46.0406C49.6544 45.8873 49.2573 45.8085 48.8564 45.8086C48.4554 45.8087 48.0584 45.8879 47.688 46.0414C47.3176 46.195 46.9811 46.42 46.6977 46.7036C46.1253 47.2764 45.8039 48.0532 45.8042 48.8629C45.8043 49.2639 45.8835 49.6609 46.037 50.0313C46.1906 50.4017 46.4156 50.7382 46.6992 51.0216C46.9829 51.305 47.3195 51.5298 47.69 51.6831C48.0605 51.8364 48.4576 51.9152 48.8585 51.9151C49.6683 51.9148 50.4448 51.5929 51.0172 51.0201Z" stroke="white" stroke-width="6.10526" stroke-linecap="round" stroke-linejoin="round"/>
</svg>
