<svg width="100" height="100" viewBox="0 0 100 100" fill="none" xmlns="http://www.w3.org/2000/svg">
<circle cx="50" cy="50" r="50" fill="#467FF7"/>
<path d="M34.5 41.5005H45.5" stroke="white" stroke-width="5.4" stroke-linecap="round" stroke-linejoin="round"/>
<path d="M75.2917 44.25H68.1362C63.2275 44.25 59.251 47.9433 59.251 52.5C59.251 57.0568 63.2302 60.75 68.1335 60.75H75.2917C75.5227 60.75 75.6355 60.75 75.7317 60.7445C77.2167 60.6537 78.3992 59.5565 78.4955 58.1788C78.501 58.0908 78.501 57.9835 78.501 57.7718V47.2283C78.501 47.0165 78.501 46.9093 78.4955 46.8213C78.3965 45.4435 77.2167 44.3462 75.7317 44.2555C75.6355 44.25 75.5227 44.25 75.2917 44.25Z" stroke="white" stroke-width="5.4"/>
<path d="M75.6547 44.25C75.4402 39.102 74.7527 35.945 72.528 33.723C69.3077 30.5 64.1212 30.5 53.751 30.5H45.501C35.1307 30.5 29.9442 30.5 26.724 33.723C23.5037 36.946 23.501 42.1298 23.501 52.5C23.501 62.8702 23.501 68.0567 26.724 71.277C29.947 74.4972 35.1307 74.5 45.501 74.5H53.751C64.1212 74.5 69.3077 74.5 72.528 71.277C74.7527 69.055 75.443 65.898 75.6547 60.75" stroke="white" stroke-width="5.4"/>
<path d="M34.5 30.4999L44.7712 23.6881C46.2161 22.7495 47.9021 22.25 49.625 22.25C51.3479 22.25 53.0339 22.7495 54.4788 23.6881L64.75 30.4999" stroke="white" stroke-width="5.4" stroke-linecap="round"/>
<path d="M67.4756 52.5H67.5061" stroke="white" stroke-width="5.5" stroke-linecap="round" stroke-linejoin="round"/>
</svg>
