<svg width="100" height="100" viewBox="0 0 100 100" fill="none" xmlns="http://www.w3.org/2000/svg">
<circle cx="50" cy="50" r="50" fill="#467FF7"/>
<path d="M49.458 24.3752C48.4746 24.3752 47.5117 24.3793 46.5489 24.3752C44.7014 24.363 43.2983 23.0854 43.2819 21.4039C43.2613 19.7019 44.6808 18.3469 46.5407 18.3428C50.5772 18.3305 54.6137 18.3305 58.6501 18.3387C60.4236 18.3387 61.8061 19.6325 61.8267 21.2692C61.8472 22.9181 60.4647 24.3181 58.716 24.3752C57.6955 24.4078 56.6751 24.3793 55.5724 24.3793C55.5724 25.5139 55.5518 26.5833 55.5971 27.6526C55.6012 27.7791 55.9509 27.971 56.1608 27.9995C59.5471 28.4403 62.7484 29.473 65.6903 31.1668C73.6111 35.7299 78.1125 42.6031 79.0136 51.5986C79.9271 60.7452 76.7465 68.4878 69.7639 74.5079C63.8758 79.5853 56.9055 81.5974 49.1288 80.7771C44.4052 80.2791 40.1588 78.5608 36.3198 75.8181C35.0525 74.912 34.6246 73.4916 35.1801 72.1284C35.6944 70.8591 37.0481 70.0673 38.443 70.3448C39.0273 70.4632 39.6239 70.7571 40.1053 71.1162C42.9691 73.2508 46.1374 74.6834 49.6925 75.1773C56.2719 76.0956 62.1312 74.4263 66.9947 69.9408C72.4425 64.9124 74.6151 58.5943 73.4383 51.3129C72.4919 45.4682 69.3812 40.8807 64.4477 37.5053C57.0742 32.4606 47.3595 32.5626 40.1547 37.8808C38.2825 39.2603 36.4268 38.6236 35.5915 37.5461C34.5341 36.1788 34.7851 34.3381 36.2129 33.2565C39.9778 30.4035 44.2035 28.6322 48.9025 28.0159C49.3757 27.9546 49.565 27.8159 49.5444 27.3261C49.5074 26.4323 49.532 25.5343 49.532 24.6364C49.532 24.5793 49.5032 24.5262 49.458 24.3711V24.3752Z" fill="white"/>
<path d="M52.4699 59.9575C49.3674 59.9575 46.911 57.4229 47.0097 54.3373C47.1085 51.3211 49.7542 48.9294 52.7991 49.0722C53.0994 49.0844 53.4697 48.9661 53.7084 48.7783C56.1196 46.8927 58.5102 44.9785 60.9049 43.0724C61.7608 42.3908 62.7195 42.2643 63.526 42.7214C64.7686 43.4316 65.0361 44.9213 64.0897 46.1131C62.7113 47.8518 61.3123 49.5701 59.9174 51.2925C59.6541 51.619 59.4072 51.9578 59.1233 52.268C58.3621 53.0884 57.9712 53.97 57.9012 55.1618C57.7408 57.8963 55.272 59.9616 52.4658 59.9575H52.4699Z" fill="white"/>
<path d="M27.687 42.604C30.9994 42.604 34.3117 42.604 37.6199 42.604C38.702 42.604 39.5085 43.0775 40.0146 44.0244C40.4878 44.9141 40.4302 45.7957 39.8788 46.6283C39.3274 47.461 38.5127 47.8201 37.5211 47.8201C33.9907 47.8201 30.4562 47.8201 26.9258 47.8201C23.8933 47.8201 20.8649 47.8201 17.8324 47.816C16.4993 47.816 15.4665 47.0936 15.1126 45.9549C14.6065 44.3223 15.8697 42.6244 17.6308 42.6162C20.9842 42.5999 24.3336 42.6122 27.687 42.6122V42.604Z" fill="white"/>
<path d="M30.1928 51.9212C32.6821 51.9212 35.1715 51.9131 37.6609 51.9212C38.9529 51.9253 39.9857 52.7375 40.249 53.9212C40.5247 55.1497 39.9363 56.3496 38.7513 56.868C38.4139 57.0149 38.0147 57.0843 37.6444 57.0843C32.6657 57.1006 27.6869 57.1047 22.7041 57.0966C21.375 57.0966 20.3505 56.3374 20.0378 55.1823C19.7333 54.0681 20.2188 52.8477 21.2927 52.2763C21.7124 52.0519 22.2432 51.9417 22.7246 51.9335C25.214 51.9008 27.7034 51.9172 30.1928 51.9172V51.9212Z" fill="white"/>
<path d="M32.1513 66.3829C30.345 66.3829 28.5387 66.3829 26.7323 66.3829C25.2634 66.3829 24.1072 65.2849 24.0619 63.8564C24.0166 62.4483 25.1111 61.2076 26.5842 61.1953C30.3162 61.1545 34.0523 61.1586 37.7843 61.2076C39.2656 61.228 40.3395 62.4116 40.3066 63.7952C40.2696 65.2768 39.1627 66.3625 37.6362 66.3747C35.8093 66.391 33.9824 66.3747 32.1555 66.3747C32.1555 66.3747 32.1555 66.3788 32.1555 66.3829H32.1513Z" fill="white"/>
</svg>
