<svg width="116" height="116" viewBox="0 0 116 116" fill="none" xmlns="http://www.w3.org/2000/svg">
<circle cx="58" cy="58" r="58" fill="#467FF7"/>
<path d="M40.02 48.1387H52.78" stroke="white" stroke-width="6.264" stroke-linecap="round" stroke-linejoin="round"/>
<path d="M87.3387 51.3291H79.0383C73.3442 51.3291 68.7314 55.6133 68.7314 60.8991C68.7314 66.1849 73.3474 70.4691 79.0351 70.4691H87.3387C87.6067 70.4691 87.7375 70.4691 87.8491 70.4627C89.5717 70.3575 90.9434 69.0846 91.0551 67.4865C91.0614 67.3844 91.0614 67.26 91.0614 67.0143V54.7839C91.0614 54.5382 91.0614 54.4138 91.0551 54.3118C90.9402 52.7136 89.5717 51.4408 87.8491 51.3355C87.7375 51.3291 87.6067 51.3291 87.3387 51.3291Z" stroke="white" stroke-width="6.264"/>
<path d="M87.7596 51.3289C87.5108 45.3572 86.7133 41.6951 84.1325 39.1176C80.3971 35.3789 74.3807 35.3789 62.3512 35.3789H52.7812C40.7517 35.3789 34.7354 35.3789 30.9999 39.1176C27.2644 42.8563 27.2612 48.8694 27.2612 60.8989C27.2612 72.9284 27.2612 78.9447 30.9999 82.6802C34.7386 86.4157 40.7517 86.4189 52.7812 86.4189H62.3512C74.3807 86.4189 80.3971 86.4189 84.1325 82.6802C86.7133 80.1027 87.5139 76.4406 87.7596 70.4689" stroke="white" stroke-width="6.264"/>
<path d="M40.02 35.3784L51.9347 27.4768C53.6107 26.3881 55.5664 25.8086 57.565 25.8086C59.5636 25.8086 61.5194 26.3881 63.1954 27.4768L75.11 35.3784" stroke="white" stroke-width="6.264" stroke-linecap="round"/>
<path d="M78.272 60.8984H78.3074" stroke="white" stroke-width="6.38" stroke-linecap="round" stroke-linejoin="round"/>
</svg>
