<svg width="116" height="116" viewBox="0 0 116 116" fill="none" xmlns="http://www.w3.org/2000/svg">
<circle cx="58" cy="58" r="58" fill="#467FF7"/>
<path d="M57.9988 76.3168V67.1589M57.9988 67.1589V58.001M57.9988 67.1589H48.8409M57.9988 67.1589H67.1567M61.0514 30.5273H46.3988C42.9798 30.5273 41.2704 30.5273 39.9638 31.1928C38.8151 31.7781 37.8812 32.7121 37.2958 33.8608C36.6304 35.1673 36.6304 36.8768 36.6304 40.2958V75.7063C36.6304 79.1252 36.6304 80.8347 37.2958 82.1412C37.8812 83.29 38.8151 84.2239 39.9638 84.8092C41.2673 85.4747 42.9768 85.4747 46.3896 85.4747H69.608C73.0208 85.4747 74.7272 85.4747 76.0307 84.8092C77.1815 84.2231 78.1156 83.289 78.7017 82.1412C79.3672 80.8347 79.3672 79.1313 79.3672 75.7185V48.8431M61.0514 30.5273C61.9245 30.5365 62.474 30.5701 63.0021 30.6952C63.6289 30.8479 64.217 31.0921 64.7665 31.4279C65.3831 31.8064 65.9112 32.3345 66.9644 33.3907L76.5069 42.9302C77.5631 43.9864 78.0882 44.5114 78.4667 45.1281C78.8025 45.6796 79.0467 46.2677 79.1993 46.8925C79.3214 47.4206 79.3581 47.9731 79.3672 48.8431M61.0514 30.5273V39.0747C61.0514 42.4937 61.0514 44.2031 61.7169 45.5097C62.3022 46.6584 63.2362 47.5923 64.3849 48.1777C65.6884 48.8431 67.3978 48.8431 70.8107 48.8431H79.3672" stroke="white" stroke-width="6.10526" stroke-linecap="round" stroke-linejoin="round"/>
</svg>
