<svg width="116" height="116" viewBox="0 0 116 116" fill="none" xmlns="http://www.w3.org/2000/svg">
<circle cx="58" cy="58" r="58" fill="#467FF7"/>
<path d="M67.1575 48.8423L54.9469 61.0528L48.8417 54.9475M43.1149 78.4558L38.4627 82.18C35.9199 84.21 34.65 85.2266 33.5816 85.2296C33.1222 85.23 32.6688 85.1267 32.2549 84.9274C31.8411 84.7282 31.4775 84.4381 31.1914 84.0788C30.5259 83.2454 30.5259 81.6184 30.5259 78.3643V43.3506C30.5259 39.9316 30.5259 38.2191 31.1914 36.9095C31.7775 35.7617 32.7085 34.8307 33.8594 34.2446C35.1659 33.5791 36.8754 33.5791 40.2943 33.5791H75.7048C79.1238 33.5791 80.8333 33.5791 82.1398 34.2446C83.2885 34.8299 84.2224 35.7638 84.8078 36.9126C85.4732 38.216 85.4732 39.9255 85.4732 43.3384V66.5597C85.4732 69.9695 85.4732 71.6759 84.8078 72.9825C84.2224 74.1312 83.2885 75.0651 82.1398 75.6505C80.8363 76.3159 79.1299 76.3159 75.717 76.3159H49.2171C47.9472 76.3159 47.3092 76.3159 46.7018 76.4381C46.1636 76.5497 45.643 76.7335 45.1541 76.9845C44.6046 77.2653 44.1101 77.6591 43.1241 78.4497L43.1149 78.4558Z" stroke="white" stroke-width="6.10526" stroke-linecap="round" stroke-linejoin="round"/>
</svg>
