<svg width="116" height="116" viewBox="0 0 116 116" fill="none" xmlns="http://www.w3.org/2000/svg">
<circle cx="58" cy="58" r="58" fill="#467FF7"/>
<path d="M50.368 30.5264H65.6312C66.8456 30.5264 68.0103 31.0088 68.869 31.8675C69.7277 32.7262 70.2101 33.8909 70.2101 35.1053C70.2101 37.9389 69.0845 40.6565 67.0808 42.6602C65.0771 44.6639 62.3595 45.7895 59.5259 45.7895H56.4733C53.6396 45.7895 50.9221 44.6639 48.9184 42.6602C46.9147 40.6565 45.7891 37.9389 45.7891 35.1053C45.7891 33.8909 46.2715 32.7262 47.1302 31.8675C47.9889 31.0088 49.1536 30.5264 50.368 30.5264Z" stroke="white" stroke-width="5.92211" stroke-linecap="round" stroke-linejoin="round"/>
<path d="M59.526 85.473H45.7891C42.5507 85.473 39.4449 84.1866 37.155 81.8966C34.8651 79.6067 33.5786 76.5009 33.5786 73.2625V70.2099C33.5767 64.8297 35.3516 59.5994 38.6276 55.3316C41.9035 51.0637 46.4972 47.9971 51.695 46.6081C56.8928 45.2192 62.4038 45.5855 67.372 47.6504C72.3402 49.7152 76.4875 53.3629 79.1697 58.0268M70.2102 79.3678H88.526M79.3681 70.2099V88.5257" stroke="white" stroke-width="5.92211" stroke-linecap="round" stroke-linejoin="round"/>
</svg>
