<svg width="116" height="116" viewBox="0 0 116 116" fill="none" xmlns="http://www.w3.org/2000/svg">
<circle cx="58" cy="58" r="58" fill="#467FF7"/>
<path d="M67.1576 48.8431L54.947 61.0537L48.8418 54.9484M82.4207 52.3994C82.4207 72.4491 67.2552 81.4391 60.8264 84.3483L60.8172 84.3544C60.1426 84.6597 59.8038 84.8123 59.0345 84.9436C58.5461 85.029 57.4532 85.029 56.9679 84.9436C56.3423 84.8396 55.7367 84.6387 55.1729 84.3483C48.7441 81.4391 33.5786 72.4491 33.5786 52.3994V40.2958C33.5786 36.8768 33.5786 35.1673 34.2441 33.8608C34.8302 32.71 35.7612 31.7789 36.9121 31.1928C38.2186 30.5273 39.9281 30.5273 43.347 30.5273H72.6523C76.0712 30.5273 77.7807 30.5273 79.0842 31.1928C80.235 31.7789 81.1691 32.71 81.7552 33.8608C82.4207 35.1643 82.4207 36.8738 82.4207 40.2866V52.3994Z" stroke="white" stroke-width="6.10526" stroke-linecap="round" stroke-linejoin="round"/>
</svg>
