<svg width="100" height="100" viewBox="0 0 100 100" fill="none" xmlns="http://www.w3.org/2000/svg">
<circle cx="50" cy="50" r="50" fill="#467FF7"/>
<path d="M78 73C78 67.774 72.99 63.331 66 61.681M60 73C60 66.37 51.942 61 42 61C32.058 61 24 66.37 24 73M60 52C63.1826 52 66.2348 50.7357 68.4853 48.4853C70.7357 46.2348 72 43.1826 72 40C72 36.8174 70.7357 33.7652 68.4853 31.5147C66.2348 29.2643 63.1826 28 60 28M42 52C38.8174 52 35.7652 50.7357 33.5147 48.4853C31.2643 46.2348 30 43.1826 30 40C30 36.8174 31.2643 33.7652 33.5147 31.5147C35.7652 29.2643 38.8174 28 42 28C45.1826 28 48.2348 29.2643 50.4853 31.5147C52.7357 33.7652 54 36.8174 54 40C54 43.1826 52.7357 46.2348 50.4853 48.4853C48.2348 50.7357 45.1826 52 42 52Z" stroke="white" stroke-width="6" stroke-linecap="round" stroke-linejoin="round"/>
</svg>
