<svg width="116" height="116" viewBox="0 0 116 116" fill="none" xmlns="http://www.w3.org/2000/svg">
<circle cx="58" cy="58" r="58" fill="#467FF7"/>
<path d="M31.0009 53.085C30.7936 52.8937 30.6455 52.6471 30.574 52.3743C30.5026 52.1014 30.5108 51.8138 30.5978 51.5455C30.6847 51.2772 30.8467 51.0394 31.0646 50.8604C31.2825 50.6813 31.5472 50.5684 31.8273 50.5351L49.5464 48.4339C49.7974 48.4046 50.0367 48.3113 50.2413 48.163C50.446 48.0147 50.6091 47.8163 50.715 47.5869L58.1875 31.3847C58.3056 31.1288 58.4946 30.912 58.732 30.76C58.9695 30.6081 59.2455 30.5273 59.5274 30.5273C59.8093 30.5273 60.0853 30.6081 60.3227 30.76C60.5601 30.912 60.7491 31.1288 60.8672 31.3847L68.3397 47.5869C68.4454 47.8159 68.608 48.0141 68.8121 48.1623C69.0162 48.3106 69.2549 48.4041 69.5054 48.4339L87.2245 50.5351C87.5046 50.5684 87.7692 50.6813 87.9871 50.8604C88.205 51.0394 88.3671 51.2772 88.454 51.5455C88.541 51.8138 88.5492 52.1014 88.4777 52.3743C88.4063 52.6471 88.2581 52.8937 88.0508 53.085L74.9534 65.1997C74.7688 65.3712 74.6312 65.5871 74.5538 65.8268C74.4763 66.0665 74.4614 66.322 74.5107 66.5691L77.9842 84.0698C78.0395 84.3465 78.0143 84.6333 77.9116 84.8961C77.8088 85.159 77.6329 85.3868 77.4046 85.5527C77.1763 85.7186 76.9052 85.8155 76.6235 85.832C76.3417 85.8485 76.0612 85.7838 75.8151 85.6457L60.2475 76.9308C60.0274 76.8078 59.7795 76.7432 59.5274 76.7432C59.2752 76.7432 59.0273 76.8078 58.8073 76.9308L43.2367 85.6428C42.9908 85.7806 42.7106 85.8451 42.4292 85.8287C42.1479 85.8123 41.8771 85.7156 41.6489 85.5502C41.4207 85.3847 41.2447 85.1573 41.1417 84.895C41.0387 84.6327 41.0129 84.3463 41.0675 84.0698L44.544 66.5691C44.5933 66.322 44.5784 66.0665 44.501 65.8268C44.4235 65.5871 44.2859 65.3712 44.1014 65.1997L31.0009 53.085Z" stroke="white" stroke-width="5.90243" stroke-linecap="round" stroke-linejoin="round"/>
</svg>
